v -0.05000000075 0.04499999806 0.04320000112
vn -0.1001871005 -0.9221768975 -0.3735670447
v 0.02499999851 0.04499999806 0.04320000112
vn -0.21137622 -0.9058980346 -0.3669725955
v -0.05000000075 0.01000000257 0.04320000112
vn -0.148655206 0.9165421128 -0.3712844551
v 0.02499999851 0.01000000257 0.04320000112
vn -0.6542323828 0.7009632587 -0.2839550376
v -0.05000000075 0.09499999881 0.04320000112
vn -0.271858871 -0.8535103798 -0.4445366263
v 0.02499999851 0.09499999881 0.04320000112
vn -0.2571280897 -0.8570936918 -0.4464029372
v -0.05000000075 0.05000000075 0.04320000112
vn -0.08211712539 0.8839187026 -0.4603742957
v 0.02499999851 0.05000000075 0.04320000112
vn -0.7287777066 0.6073147655 -0.3163097501
v -0.05000000075 0.1449999958 0.04320000112
vn -0.1050783843 -0.8820040822 -0.4593770802
v 0.02499999851 0.1449999958 0.04320000112
vn -0.2571280599 -0.8570936918 -0.4464029074
v -0.05000000075 0.1000000015 0.04320000112
vn -0.0821171701 0.8839187026 -0.4603742659
v 0.02499999851 0.1000000015 0.04320000112
vn -0.728777647 0.6073148251 -0.3163097501
v 0.02499999851 0.04499999806 -0.04320000112
vn -0.6542323828 -0.7009632587 0.2839550376
v 0.02499999851 0.01000000257 -0.04320000112
vn -0.21137622 0.9058980346 0.3669725955
v 0.02499999851 0.09499999881 -0.04320000112
vn -0.7287777066 -0.6073147655 0.3163097501
v 0.02499999851 0.05000000075 -0.04320000112
vn -0.2571280897 0.8570936918 0.4464029372
v 0.02499999851 0.1449999958 -0.04320000112
vn -0.728777647 -0.6073148251 0.3163097501
v 0.02499999851 0.1000000015 -0.04320000112
vn -0.2571280599 0.8570936918 0.4464029074
v -0.05000000075 0.04499999806 -0.04320000112
vn -0.08097475022 -0.9237965941 0.3742231727
v -0.05000000075 0.01000000257 -0.04320000112
vn -0.1556978226 0.9155371189 0.3708773255
v -0.05000000075 0.09499999881 -0.04320000112
vn -0.1683744192 -0.8742517233 0.455339402
v -0.05000000075 0.05000000075 -0.04320000112
vn -0.1050782427 0.8820040822 0.45937711
v -0.05000000075 0.1449999958 -0.04320000112
vn -0.0821172595 -0.8839187026 0.4603742659
v -0.05000000075 0.1000000015 -0.04320000112
vn -0.1050782949 0.8820041418 0.4593770802
v -0.05000000075 0.150000006 -0.04320000112
vn -0.1028029472 0.9026589394 0.4178975523
v 0.02499999851 0.150000006 -0.04320000112
vn -0.2352024168 0.8820092678 0.4083375037
v -0.05000000075 0.1899999976 -0.04320000112
vn -0.1427841932 -0.8981689215 0.4158188403
v 0.02499999851 0.1899999976 -0.04320000112
vn -0.6955040097 -0.6520351768 0.3018680513
v 0.03000000119 0.1917364746 0.04984807596
vn 0.004270107951 0.1736463308 0.9847988486
v 0.003333333414 0.1908715516 0.0499619469
vn 2.716538638e-008 0.1401405036 0.9901316166
v 0.03000000119 0.1899999976 0.05000000075
vn 0.06392909586 0.0002650296665 0.9979544282
v -0.02333333343 0.1908715516 0.0499619469
vn -2.445513303e-008 0.104498297 0.994525075
v -0.05000000075 0.1899999976 0.05000000075
vn -0.1262900382 0.000459572213 0.9919932485
v -0.05000000075 0.1917364746 0.04984807596
vn -0.1690075547 0.1711499393 0.9706410766
v -0.02333333343 0.1925881952 0.04965925962
vn 0.0002384955005 0.2447167188 0.9695945978
v -0.05000000075 0.1934202015 0.04939692467
vn -0.1724563837 0.3368964791 0.9256130457
v -0.02333333343 0.1942261755 0.04906307906
vn 0.0002385114785 0.4093688428 0.9123689532
v -0.05000000075 0.1949999928 0.04866025224
vn -0.1780724525 0.4920073152 0.8521848321
v -0.02333333343 0.1957357675 0.04819152132
vn 0.0002385275438 0.5615788698 0.8274232149
v -0.05000000075 0.1964278817 0.04766044393
vn -0.1856682301 0.6316110492 0.7527249455
v -0.02333333343 0.1970710605 0.04707106948
vn 0.000238636756 0.696729362 0.7173340321
v -0.05000000075 0.1976604462 0.04642787576
vn -0.1949852258 0.7513405085 0.6304507852
v -0.02333333343 0.1981915236 0.04573576525
vn 0.0002385663975 0.8107068539 0.5854522586
v -0.05000000075 0.1986602545 0.04500000179
vn -0.2057139128 0.8475037217 0.4893048704
v -0.02333333343 0.1990630776 0.04422618076
vn 0.0002385586413 0.9000543952 0.435777545
v -0.05000000075 0.1993969232 0.04342020303
vn -0.2174978703 0.9171975255 0.3338313103
v -0.02333333343 0.1996592581 0.04258818924
vn 0.0002384949621 0.9620522261 0.2728652358
v -0.05000000075 0.1998480707 0.04173648357
vn -0.2299527675 0.9584165215 0.1689954847
v -0.02333333343 0.1999619454 0.04087155685
vn -4.775455054e-008 0.9901313782 0.1401422918
v -0.05000000075 0.200000003 0.03999999911
vn -0.1288278252 0.9916667938 0.000621627667
v 0.003333333414 0.1999619454 0.04087155685
vn 4.299002399e-008 0.9945247769 0.1045008451
v 0.03000000119 0.200000003 0.03999999911
vn 0.9397739172 0.3417964876 0.000372225506
v 0.03000000119 0.1998480707 0.04173648357
vn 0.202516675 0.9644012451 0.1700507551
v 0.003333333414 0.1996592581 0.04258818924
vn -0.0002384949767 0.9695945978 0.2447168082
v 0.03000000119 0.1993969232 0.04342020303
vn 0.1625712663 0.9271921515 0.3374690413
v 0.003333333414 0.1990630776 0.04422618076
vn -0.0002385586849 0.9123697877 0.4093669951
v 0.03000000119 0.1986602545 0.04500000179
vn 0.1243455335 0.8593048453 0.4961182475
v 0.003333333414 0.1981915236 0.04573576525
vn -0.000238566543 0.8274222612 0.5615802407
v 0.03000000119 0.1976604462 0.04642787576
vn 0.08930805326 0.7629827857 0.6402198076
v 0.003333333414 0.1970710605 0.04707106948
vn -0.0002386363776 0.7173343897 0.6967290044
v 0.03000000119 0.1964278817 0.04766044393
vn 0.05878937244 0.6416757107 0.7647196054
v 0.003333333414 0.1957357675 0.04819152132
vn -0.0002385279222 0.5854508281 0.8107079268
v 0.03000000119 0.1949999928 0.04866025224
vn 0.03390825167 0.4997110665 0.8655282259
v 0.003333333414 0.1942261755 0.04906307906
vn -0.0002385110274 0.4357789755 0.9000536799
v 0.03000000119 0.1934202015 0.04939692467
vn 0.01553278323 0.3419796824 0.9395789504
v 0.003333333414 0.1925881952 0.04965925962
vn -0.0002384959953 0.272865653 0.9620521069
v 0.03000000119 0.200000003 -0.03999999911
vn 0.9464080334 0.3229734004 -0.0002024563
v -0.05000000075 0.200000003 -0.03999999911
vn -0.1244007275 0.9922314882 -0.001080566552
v 0.03000000119 3.061617131e-018 0.05000000075
vn 0.8641691804 -0.3648207486 0.3465797007
v 0.03000000119 -3.061617131e-018 -0.05000000075
vn 0.5716301203 -0.2088146657 -0.7934957147
v 0.03000000119 0.1899999976 -0.05000000075
vn 0.1267027408 0.000459547824 -0.9919406176
v 0.03000000119 0.1917364746 -0.04984807596
vn 0.004270107951 0.1736463308 -0.9847988486
v 0.03000000119 0.1934202015 -0.04939692467
vn 0.01553278323 0.3419796824 -0.9395789504
v 0.03000000119 0.1949999928 -0.04866025224
vn 0.03390825167 0.4997110665 -0.8655282259
v 0.03000000119 0.1964278817 -0.04766044393
vn 0.05878937244 0.6416757107 -0.7647196054
v 0.03000000119 0.1976604462 -0.04642787576
vn 0.08930805326 0.7629827857 -0.6402198076
v 0.03000000119 0.1986602545 -0.04500000179
vn 0.1243455335 0.8593048453 -0.4961182475
v 0.03000000119 0.1993969232 -0.04342020303
vn 0.1625712663 0.9271921515 -0.3374690413
v 0.03000000119 0.1998480707 -0.04173648357
vn 0.202516675 0.9644012451 -0.1700507551
v -0.05000000075 0.1917364746 -0.04984807596
vn -0.1690075547 0.1711499393 -0.9706410766
v -0.02333333343 0.1908715516 -0.0499619469
vn -2.716538461e-008 0.1401405036 -0.9901316166
v -0.05000000075 0.1899999976 -0.05000000075
vn -0.06371834874 0.0002650332754 -0.9979678988
v 0.003333333414 0.1908715516 -0.0499619469
vn 2.445513481e-008 0.104498297 -0.994525075
v 0.003333333414 0.1925881952 -0.04965925962
vn -0.0002384955005 0.2447167188 -0.9695945978
v 0.003333333414 0.1942261755 -0.04906307906
vn -0.0002385114785 0.4093688428 -0.9123689532
v 0.003333333414 0.1957357675 -0.04819152132
vn -0.0002385275584 0.5615788698 -0.8274232149
v 0.003333333414 0.1970710605 -0.04707106948
vn -0.000238636756 0.696729362 -0.7173340321
v 0.003333333414 0.1981915236 -0.04573576525
vn -0.0002385663975 0.8107068539 -0.5854522586
v 0.003333333414 0.1990630776 -0.04422618076
vn -0.0002385586558 0.9000543952 -0.435777545
v 0.003333333414 0.1996592581 -0.04258818924
vn -0.0002384949621 0.9620522261 -0.2728652358
v 0.003333333414 0.1999619454 -0.04087155685
vn 4.775455054e-008 0.9901313782 -0.1401422918
v -0.02333333343 0.1999619454 -0.04087155685
vn -4.299002399e-008 0.9945247769 -0.1045008451
v -0.05000000075 0.1998480707 -0.04173648357
vn -0.2299527675 0.9584165215 -0.1689954847
v -0.02333333343 0.1996592581 -0.04258818924
vn 0.0002384949621 0.9695945978 -0.2447168082
v -0.05000000075 0.1993969232 -0.04342020303
vn -0.2174978703 0.9171975255 -0.3338313103
v -0.02333333343 0.1990630776 -0.04422618076
vn 0.0002385586704 0.9123697877 -0.4093669951
v -0.05000000075 0.1986602545 -0.04500000179
vn -0.2057139128 0.8475037217 -0.4893048704
v -0.02333333343 0.1981915236 -0.04573576525
vn 0.000238566543 0.8274222612 -0.5615802407
v -0.05000000075 0.1976604462 -0.04642787576
vn -0.1949852258 0.7513405085 -0.6304507852
v -0.02333333343 0.1970710605 -0.04707106948
vn 0.0002386363776 0.7173343897 -0.6967290044
v -0.05000000075 0.1964278817 -0.04766044393
vn -0.1856682301 0.6316110492 -0.7527249455
v -0.02333333343 0.1957357675 -0.04819152132
vn 0.0002385279076 0.5854508281 -0.8107079268
v -0.05000000075 0.1949999928 -0.04866025224
vn -0.1780724525 0.4920073152 -0.8521848321
v -0.02333333343 0.1942261755 -0.04906307906
vn 0.0002385110129 0.4357789755 -0.9000536799
v -0.05000000075 0.1934202015 -0.04939692467
vn -0.1724563837 0.3368964791 -0.9256130457
v -0.02333333343 0.1925881952 -0.04965925962
vn 0.0002384959807 0.272865653 -0.9620521069
v -0.05000000075 0.1899999976 0.04320000112
vn -0.1738054305 -0.8936553001 -0.4137292206
v 0.02499999851 0.1899999976 0.04320000112
vn -0.2352024168 -0.8820092678 -0.4083375037
v 0.02499999851 0.150000006 0.04320000112
vn -0.6955040097 0.6520351768 -0.3018680513
v -0.05000000075 0.150000006 0.04320000112
vn -0.08165067434 0.9044369459 -0.4187206924
v -0.05000000075 -3.061617131e-018 -0.05000000075
vn -0.1668256819 -0.7148395777 -0.6790975928
v -0.05000000075 3.061617131e-018 0.05000000075
vn -0.09092131257 -0.2534392178 0.9630689621
# mm_gid 0
g mmGroup0
f 1//1 2//2 3//3 
f 3//3 2//2 4//4 
f 5//5 6//6 7//7 
f 7//7 6//6 8//8 
f 9//9 10//10 11//11 
f 11//11 10//10 12//12 
f 2//2 13//13 4//4 
f 4//4 13//13 14//14 
f 6//6 15//15 8//8 
f 8//8 15//15 16//16 
f 10//10 17//17 12//12 
f 12//12 17//17 18//18 
f 13//13 19//19 14//14 
f 14//14 19//19 20//20 
f 15//15 21//21 16//16 
f 16//16 21//21 22//22 
f 17//17 23//23 18//18 
f 18//18 23//23 24//24 
f 25//25 26//26 27//27 
f 27//27 26//26 28//28 
f 29//29 30//30 31//31 
f 31//31 30//30 32//32 
f 31//31 32//32 33//33 
f 33//33 32//32 34//34 
f 34//34 32//32 35//35 
f 34//34 35//35 36//36 
f 36//36 35//35 37//37 
f 36//36 37//37 38//38 
f 38//38 37//37 39//39 
f 38//38 39//39 40//40 
f 40//40 39//39 41//41 
f 40//40 41//41 42//42 
f 42//42 41//41 43//43 
f 42//42 43//43 44//44 
f 44//44 43//43 45//45 
f 44//44 45//45 46//46 
f 46//46 45//45 47//47 
f 46//46 47//47 48//48 
f 48//48 47//47 49//49 
f 48//48 49//49 50//50 
f 50//50 49//49 51//51 
f 50//50 51//51 52//52 
f 52//52 51//51 53//53 
f 53//53 51//51 54//54 
f 53//53 54//54 55//55 
f 55//55 54//54 56//56 
f 55//55 56//56 57//57 
f 57//57 56//56 58//58 
f 57//57 58//58 59//59 
f 59//59 58//58 60//60 
f 59//59 60//60 61//61 
f 61//61 60//60 62//62 
f 61//61 62//62 63//63 
f 63//63 62//62 64//64 
f 63//63 64//64 65//65 
f 65//65 64//64 66//66 
f 65//65 66//66 29//29 
f 29//29 66//66 30//30 
f 35//35 32//32 30//30 
f 37//37 35//35 66//66 
f 66//66 35//35 30//30 
f 39//39 37//37 64//64 
f 64//64 37//37 66//66 
f 41//41 39//39 62//62 
f 62//62 39//39 64//64 
f 43//43 41//41 60//60 
f 60//60 41//41 62//62 
f 45//45 43//43 58//58 
f 58//58 43//43 60//60 
f 47//47 45//45 56//56 
f 56//56 45//45 58//58 
f 49//49 47//47 54//54 
f 54//54 47//47 56//56 
f 51//51 49//49 54//54 
f 52//52 67//67 50//50 
f 50//50 67//67 68//68 
f 53//53 31//31 52//52 
f 52//52 31//31 69//69 
f 52//52 69//69 67//67 
f 67//67 69//69 70//70 
f 67//67 70//70 71//71 
f 53//53 55//55 31//31 
f 31//31 55//55 57//57 
f 31//31 57//57 59//59 
f 59//59 61//61 31//31 
f 31//31 61//61 63//63 
f 31//31 63//63 65//65 
f 65//65 29//29 31//31 
f 72//72 73//73 71//71 
f 71//71 73//73 74//74 
f 71//71 74//74 75//75 
f 75//75 76//76 71//71 
f 71//71 76//76 77//77 
f 71//71 77//77 78//78 
f 78//78 79//79 71//71 
f 71//71 79//79 67//67 
f 80//80 81//81 82//82 
f 82//82 81//81 83//83 
f 82//82 83//83 71//71 
f 71//71 83//83 72//72 
f 72//72 83//83 84//84 
f 72//72 84//84 73//73 
f 73//73 84//84 85//85 
f 73//73 85//85 74//74 
f 74//74 85//85 86//86 
f 74//74 86//86 75//75 
f 75//75 86//86 87//87 
f 75//75 87//87 76//76 
f 76//76 87//87 88//88 
f 76//76 88//88 77//77 
f 77//77 88//88 89//89 
f 77//77 89//89 78//78 
f 78//78 89//89 90//90 
f 78//78 90//90 79//79 
f 79//79 90//90 91//91 
f 79//79 91//91 67//67 
f 67//67 91//91 92//92 
f 67//67 92//92 68//68 
f 68//68 92//92 93//93 
f 93//93 92//92 94//94 
f 93//93 94//94 95//95 
f 95//95 94//94 96//96 
f 95//95 96//96 97//97 
f 97//97 96//96 98//98 
f 97//97 98//98 99//99 
f 99//99 98//98 100//100 
f 99//99 100//100 101//101 
f 101//101 100//100 102//102 
f 101//101 102//102 103//103 
f 103//103 102//102 104//104 
f 103//103 104//104 105//105 
f 105//105 104//104 106//106 
f 105//105 106//106 80//80 
f 80//80 106//106 81//81 
f 84//84 83//83 81//81 
f 85//85 84//84 106//106 
f 106//106 84//84 81//81 
f 86//86 85//85 104//104 
f 104//104 85//85 106//106 
f 87//87 86//86 102//102 
f 102//102 86//86 104//104 
f 88//88 87//87 100//100 
f 100//100 87//87 102//102 
f 89//89 88//88 98//98 
f 98//98 88//88 100//100 
f 90//90 89//89 96//96 
f 96//96 89//89 98//98 
f 91//91 90//90 94//94 
f 94//94 90//90 96//96 
f 92//92 91//91 94//94 
f 107//107 27//27 108//108 
f 108//108 27//27 28//28 
f 109//109 110//110 108//108 
f 108//108 110//110 107//107 
f 20//20 3//3 14//14 
f 14//14 3//3 4//4 
f 26//26 109//109 28//28 
f 28//28 109//109 108//108 
f 70//70 69//69 111//111 
f 111//111 69//69 112//112 
f 33//33 112//112 31//31 
f 31//31 112//112 69//69 
f 71//71 70//70 82//82 
f 82//82 70//70 111//111 
f 8//8 16//16 7//7 
f 7//7 16//16 22//22 
f 1//1 19//19 2//2 
f 2//2 19//19 13//13 
f 12//12 18//18 11//11 
f 11//11 18//18 24//24 
f 5//5 21//21 6//6 
f 6//6 21//21 15//15 
f 109//109 26//26 110//110 
f 110//110 26//26 25//25 
f 9//9 23//23 10//10 
f 10//10 23//23 17//17 
f 25//25 23//23 110//110 
f 110//110 23//23 9//9 
f 110//110 9//9 33//33 
f 33//33 9//9 11//11 
f 33//33 11//11 5//5 
f 5//5 11//11 21//21 
f 21//21 11//11 24//24 
f 21//21 24//24 82//82 
f 82//82 24//24 23//23 
f 82//82 23//23 25//25 
f 25//25 27//27 82//82 
f 82//82 27//27 80//80 
f 80//80 27//27 105//105 
f 105//105 27//27 103//103 
f 103//103 27//27 101//101 
f 101//101 27//27 99//99 
f 99//99 27//27 97//97 
f 97//97 27//27 95//95 
f 95//95 27//27 93//93 
f 93//93 27//27 68//68 
f 68//68 27//27 50//50 
f 50//50 27//27 107//107 
f 50//50 107//107 48//48 
f 48//48 107//107 46//46 
f 46//46 107//107 44//44 
f 44//44 107//107 42//42 
f 42//42 107//107 40//40 
f 40//40 107//107 38//38 
f 38//38 107//107 36//36 
f 36//36 107//107 34//34 
f 34//34 107//107 33//33 
f 33//33 107//107 110//110 
f 33//33 5//5 112//112 
f 112//112 5//5 7//7 
f 112//112 7//7 1//1 
f 1//1 7//7 19//19 
f 19//19 7//7 22//22 
f 19//19 22//22 111//111 
f 111//111 22//22 21//21 
f 111//111 21//21 82//82 
f 112//112 3//3 111//111 
f 111//111 3//3 20//20 
f 111//111 20//20 19//19 
f 1//1 3//3 112//112 
